<svg width="390" height="848" viewBox="0 0 390 848" fill="none" xmlns="http://www.w3.org/2000/svg">
<rect width="390" height="848" rx="10" fill="url(#paint0_linear_1_1066)"/>
<mask id="mask0_1_1066" style="mask-type:alpha" maskUnits="userSpaceOnUse" x="0" y="0" width="390" height="848">
<rect width="390" height="848" rx="10" fill="url(#paint1_linear_1_1066)"/>
</mask>
<g mask="url(#mask0_1_1066)">
<path d="M337.691 331.586C335.346 329.794 335.528 325.764 337.691 323.777C338.724 322.829 339.383 323.046 340.043 322.254C339.259 321.832 337.565 320.497 337.061 318.534C336.556 316.57 338.838 315.522 340.043 315.243C340.547 311.45 345.109 311.059 347.326 311.338L349.505 309.107C354.495 305.76 357.63 310.799 360.173 313.681C365.621 314.685 363.04 315.912 363.9 319.984C367.341 324.948 367.257 325.042 364.359 327.124C360.631 329.801 368.431 330.694 371.929 331.921C375.428 333.148 367.571 321.657 374.395 326.733C379.855 330.794 377.722 334.598 376.861 337.164C374.598 343.913 370.362 347.613 368.202 348.376C366.366 348.867 364.13 347.39 363.155 346.814C362.008 348.733 360.574 349.026 360.402 348.822C358.108 349.581 356.407 347.725 355.413 346.814C353.654 347.297 348.771 348.554 346.753 348.822C344.734 349.09 344.669 347.725 344 346.814C340.972 347.974 339.259 347.409 339.183 346.424C338.609 339.061 340.043 335.714 341.018 333.315C338.494 332.757 338.494 332.2 337.691 331.586Z" fill="#7BA0B9" fill-opacity="0.8"/>
<path d="M325.101 313.681C327.841 311.577 327.629 306.848 325.101 304.516C323.895 303.403 323.125 303.659 322.353 302.728C323.269 302.233 325.248 300.667 325.838 298.363C326.428 296.058 323.761 294.827 322.353 294.5C321.764 290.049 316.434 289.59 313.843 289.918L311.296 287.299C305.466 283.371 301.802 289.285 298.831 292.667C292.465 293.846 295.481 295.286 294.476 300.065C290.455 305.891 290.553 306.001 293.94 308.444C298.295 311.586 289.182 312.633 285.094 314.074C281.006 315.514 290.187 302.028 282.212 307.986C275.832 312.751 278.325 317.216 279.33 320.227C281.975 328.148 286.925 332.491 289.45 333.385C291.594 333.961 294.208 332.229 295.347 331.552C296.687 333.804 298.362 334.149 298.563 333.909C301.244 334.799 303.232 332.621 304.394 331.552C306.449 332.12 312.154 333.595 314.513 333.909C316.872 334.223 316.948 332.621 317.729 331.552C321.268 332.914 323.269 332.251 323.359 331.094C324.029 322.453 322.353 318.525 321.214 315.71C324.163 315.056 324.163 314.401 325.101 313.681Z" fill="#7BA0B9" fill-opacity="0.8"/>
<ellipse cx="139.5" cy="449" rx="330.5" ry="140" fill="#A0C38F"/>
<ellipse cx="136" cy="450.483" rx="327" ry="138.517" fill="#90B97D"/>
<path d="M-39.0528 290.596C-39.0528 290.596 -30.7178 270.245 -11.0639 257.477C8.59012 244.709 190.792 299.405 190.792 299.405C190.792 299.405 222.623 308.633 241.454 333.081C254.11 349.529 261.176 373.839 247.765 403.194C215.797 473.111 132.859 465.027 111.25 461.04C101.098 459.172 76.3672 453.848 76.3672 453.848C76.3672 453.848 19.8749 491.762 -48.108 462.685C-99.8669 440.55 -93.4528 407.459 -93.4528 407.459C-93.4528 407.459 -128.302 379.135 -113.21 339.688C-95.0306 292.185 -39.0528 290.596 -39.0528 290.596Z" fill="#448F44"/>
<path d="M78.8372 375.205C126 368.821 140.715 352.457 153.509 337.292C167.606 320.565 163.833 306.542 173.643 306.152C183.453 305.762 191.273 320.147 180.503 345.265C165.274 380.781 133.958 385.994 133.34 395.556C132.86 403.139 166.68 403.668 197.207 391.569C241.42 374.007 241.42 332.887 241.42 332.887C241.42 332.887 233.565 319.701 218.336 310.529C203.107 301.357 191.788 296.562 191.788 296.562C191.788 296.562 173.608 241.085 91.1166 231.886C8.62481 222.686 -25.298 269.437 -25.298 269.437C-25.298 269.437 -22.3482 284.603 -8.11364 302.166C3.2397 316.188 14.9703 315.742 13.9756 323.715C13.3239 328.9 -7.15324 330.489 -28.7623 322.907C-48.4506 315.993 -53.3212 306.542 -58.7063 306.542C-64.0915 306.542 -108.75 326.754 -90.1253 369.602C-75.3762 403.529 -26.6357 409.885 -17.9235 411.112C7.63011 414.708 22.3449 401.132 4.16579 390.343C-14.0133 379.554 -34.1474 373.17 -29.7227 362.409C-24.955 350.756 -7.94215 362.911 12.5007 370.104C32.7035 377.212 57.1595 378.16 78.8372 375.205Z" fill="#479747"/>
<path d="M-14.9393 419.698C-14.9393 419.698 -3.62029 419.168 1.04453 418.081C5.70935 416.994 12.0206 413.76 12.0206 413.76C12.0206 413.76 55.7532 450.949 60.2809 454.071C64.7056 457.11 69.9192 410.777 69.9192 410.777C69.9192 410.777 79.9005 412.032 89.2302 410.833C101.51 409.244 109.879 406.066 109.879 406.066C109.879 406.066 103.911 434.585 101.578 445.401C100.103 452.343 99.5888 471.634 99.5888 471.634L67.6211 493.267L43.3023 479.997C43.3023 479.997 43.2337 474.784 39.6322 471.244C28.4503 460.26 -14.9393 419.698 -14.9393 419.698ZM96.5704 483.287L120.889 459.479C120.889 459.479 129.533 460.009 135.878 460.009C142.19 460.009 153.2 458.922 153.2 458.922C153.2 458.922 133.237 480.834 122.57 491.65C111.903 502.467 97.9424 516.016 97.9424 516.016L84.6339 484.625L96.5704 483.287Z" fill="#6D4B41"/>
<path d="M79.2829 464.329C69.3358 465.054 43.3363 480.025 43.3363 480.025C43.3363 480.025 44.674 505.449 43.6793 519.806C42.6846 534.163 35.7217 557.608 42.1358 563.546C47.6924 568.676 94.4092 569.651 101.372 563.686C108.369 557.72 101.578 533.076 101.578 517.102C101.578 501.128 99.5885 471.633 99.5885 471.633C99.5885 471.633 90.6019 463.521 79.2829 464.329Z" fill="#865B50"/>
<g filter="url(#filter0_d_1_1066)">
<path d="M192 539C322.836 470.429 486.115 521.509 534 565.939V848H22L39.6806 736.611C47.5386 692.432 61.1638 607.571 192 539Z" fill="#6AB96A"/>
</g>
<path d="M200.433 546.619C328.043 479.739 487.296 529.56 534 572.894V848H34.6247L51.8693 739.357C59.5336 696.268 72.8228 613.499 200.433 546.619Z" fill="#6DBD6D"/>
<g filter="url(#filter1_d_1_1066)">
<path d="M124.8 557.956C10.3183 497.621 -102.101 560.725 -144 599.818V848H304L288.53 749.99C281.654 711.118 239.282 618.29 124.8 557.956Z" fill="#448F44"/>
</g>
<path d="M120.6 562.488C7.90707 503.096 -102.755 565.213 -144 603.696V848H297L281.771 751.521C275.003 713.257 233.293 621.88 120.6 562.488Z" fill="#479547"/>
<g filter="url(#filter2_d_1_1066)">
<rect x="31" y="727" width="142" height="60" rx="10" fill="#2A3779"/>
</g>
<g filter="url(#filter3_d_1_1066)">
<rect x="218" y="727" width="142" height="60" rx="10" fill="#2A3779"/>
</g>
<path d="M260.213 765.24C259.333 765.24 258.559 765.1 257.893 764.82C257.226 764.527 256.693 764.127 256.293 763.62C255.893 763.113 255.653 762.527 255.573 761.86H258.153C258.233 762.247 258.446 762.58 258.793 762.86C259.153 763.127 259.613 763.26 260.173 763.26C260.733 763.26 261.139 763.147 261.393 762.92C261.659 762.693 261.793 762.433 261.793 762.14C261.793 761.713 261.606 761.427 261.233 761.28C260.859 761.12 260.339 760.967 259.673 760.82C259.246 760.727 258.813 760.613 258.373 760.48C257.933 760.347 257.526 760.18 257.153 759.98C256.793 759.767 256.499 759.5 256.273 759.18C256.046 758.847 255.933 758.44 255.933 757.96C255.933 757.08 256.279 756.34 256.973 755.74C257.679 755.14 258.666 754.84 259.933 754.84C261.106 754.84 262.039 755.113 262.733 755.66C263.439 756.207 263.859 756.96 263.993 757.92H261.573C261.426 757.187 260.873 756.82 259.913 756.82C259.433 756.82 259.059 756.913 258.793 757.1C258.539 757.287 258.413 757.52 258.413 757.8C258.413 758.093 258.606 758.327 258.993 758.5C259.379 758.673 259.893 758.833 260.533 758.98C261.226 759.14 261.859 759.32 262.433 759.52C263.019 759.707 263.486 759.993 263.833 760.38C264.179 760.753 264.353 761.293 264.353 762C264.366 762.613 264.206 763.167 263.873 763.66C263.539 764.153 263.059 764.54 262.433 764.82C261.806 765.1 261.066 765.24 260.213 765.24ZM268 753.54C267.534 753.54 267.147 753.4 266.84 753.12C266.547 752.84 266.4 752.487 266.4 752.06C266.4 751.633 266.547 751.287 266.84 751.02C267.147 750.74 267.534 750.6 268 750.6C268.467 750.6 268.847 750.74 269.14 751.02C269.447 751.287 269.6 751.633 269.6 752.06C269.6 752.487 269.447 752.84 269.14 753.12C268.847 753.4 268.467 753.54 268 753.54ZM266.72 765V755.08H269.28V765H266.72ZM276.152 762.04C275.672 762.04 275.226 761.987 274.812 761.88L274.072 762.62C274.299 762.74 274.606 762.84 274.992 762.92C275.379 763 276.006 763.08 276.872 763.16C278.192 763.28 279.152 763.593 279.752 764.1C280.352 764.607 280.652 765.307 280.652 766.2C280.652 766.787 280.492 767.34 280.172 767.86C279.852 768.393 279.359 768.82 278.692 769.14C278.026 769.473 277.172 769.64 276.132 769.64C274.719 769.64 273.579 769.373 272.712 768.84C271.846 768.32 271.412 767.533 271.412 766.48C271.412 765.587 271.846 764.813 272.712 764.16C272.446 764.04 272.212 763.913 272.012 763.78C271.826 763.647 271.659 763.507 271.512 763.36V762.9L273.252 761.06C272.479 760.38 272.092 759.507 272.092 758.44C272.092 757.773 272.252 757.167 272.572 756.62C272.906 756.073 273.372 755.64 273.972 755.32C274.572 755 275.299 754.84 276.152 754.84C276.712 754.84 277.232 754.92 277.712 755.08H281.472V756.64L279.772 756.76C280.039 757.267 280.172 757.827 280.172 758.44C280.172 759.107 280.012 759.713 279.692 760.26C279.372 760.807 278.906 761.24 278.292 761.56C277.692 761.88 276.979 762.04 276.152 762.04ZM276.152 760.08C276.672 760.08 277.099 759.94 277.432 759.66C277.779 759.38 277.952 758.98 277.952 758.46C277.952 757.94 277.779 757.54 277.432 757.26C277.099 756.98 276.672 756.84 276.152 756.84C275.606 756.84 275.166 756.98 274.832 757.26C274.499 757.54 274.332 757.94 274.332 758.46C274.332 758.98 274.499 759.38 274.832 759.66C275.166 759.94 275.606 760.08 276.152 760.08ZM273.752 766.22C273.752 766.713 273.979 767.08 274.432 767.32C274.899 767.573 275.466 767.7 276.132 767.7C276.772 767.7 277.292 767.567 277.692 767.3C278.092 767.047 278.292 766.7 278.292 766.26C278.292 765.9 278.159 765.6 277.892 765.36C277.639 765.12 277.126 764.973 276.352 764.92C275.806 764.88 275.299 764.82 274.832 764.74C274.446 764.953 274.166 765.187 273.992 765.44C273.832 765.693 273.752 765.953 273.752 766.22ZM283.339 765V755.08H285.599L285.799 756.76C286.106 756.173 286.546 755.707 287.119 755.36C287.706 755.013 288.392 754.84 289.179 754.84C290.406 754.84 291.359 755.227 292.039 756C292.719 756.773 293.059 757.907 293.059 759.4V765H290.499V759.64C290.499 758.787 290.326 758.133 289.979 757.68C289.632 757.227 289.092 757 288.359 757C287.639 757 287.046 757.253 286.579 757.76C286.126 758.267 285.899 758.973 285.899 759.88V765H283.339ZM303.993 765.24C302.753 765.24 301.793 764.853 301.113 764.08C300.446 763.307 300.113 762.173 300.113 760.68V755.08H302.653V760.44C302.653 761.293 302.826 761.947 303.173 762.4C303.519 762.853 304.066 763.08 304.813 763.08C305.519 763.08 306.099 762.827 306.553 762.32C307.019 761.813 307.253 761.107 307.253 760.2V755.08H309.813V765H307.553L307.353 763.32C307.046 763.907 306.599 764.373 306.013 764.72C305.439 765.067 304.766 765.24 303.993 765.24ZM312.441 769.4V755.08H314.721L315.001 756.5C315.321 756.06 315.741 755.673 316.261 755.34C316.794 755.007 317.481 754.84 318.321 754.84C319.254 754.84 320.087 755.067 320.821 755.52C321.554 755.973 322.134 756.593 322.561 757.38C322.987 758.167 323.201 759.06 323.201 760.06C323.201 761.06 322.987 761.953 322.561 762.74C322.134 763.513 321.554 764.127 320.821 764.58C320.087 765.02 319.254 765.24 318.321 765.24C317.574 765.24 316.921 765.1 316.361 764.82C315.801 764.54 315.347 764.147 315.001 763.64V769.4H312.441ZM317.781 763C318.594 763 319.267 762.727 319.801 762.18C320.334 761.633 320.601 760.927 320.601 760.06C320.601 759.193 320.334 758.48 319.801 757.92C319.267 757.36 318.594 757.08 317.781 757.08C316.954 757.08 316.274 757.36 315.741 757.92C315.221 758.467 314.961 759.173 314.961 760.04C314.961 760.907 315.221 761.62 315.741 762.18C316.274 762.727 316.954 763 317.781 763Z" fill="white"/>
<path d="M80.634 765V750.6H83.194V765H80.634ZM90.5698 765.24C89.6098 765.24 88.7431 765.02 87.9698 764.58C87.2098 764.14 86.6031 763.533 86.1498 762.76C85.7098 761.973 85.4898 761.067 85.4898 760.04C85.4898 759.013 85.7164 758.113 86.1698 757.34C86.6231 756.553 87.2298 755.94 87.9898 755.5C88.7631 755.06 89.6298 754.84 90.5898 754.84C91.5364 754.84 92.3898 755.06 93.1498 755.5C93.9231 755.94 94.5298 756.553 94.9698 757.34C95.4231 758.113 95.6498 759.013 95.6498 760.04C95.6498 761.067 95.4231 761.973 94.9698 762.76C94.5298 763.533 93.9231 764.14 93.1498 764.58C92.3764 765.02 91.5164 765.24 90.5698 765.24ZM90.5698 763.02C91.2364 763.02 91.8164 762.773 92.3098 762.28C92.8031 761.773 93.0498 761.027 93.0498 760.04C93.0498 759.053 92.8031 758.313 92.3098 757.82C91.8164 757.313 91.2431 757.06 90.5898 757.06C89.9098 757.06 89.3231 757.313 88.8298 757.82C88.3498 758.313 88.1098 759.053 88.1098 760.04C88.1098 761.027 88.3498 761.773 88.8298 762.28C89.3231 762.773 89.9031 763.02 90.5698 763.02ZM101.514 762.04C101.034 762.04 100.587 761.987 100.174 761.88L99.4337 762.62C99.6603 762.74 99.967 762.84 100.354 762.92C100.74 763 101.367 763.08 102.234 763.16C103.554 763.28 104.514 763.593 105.114 764.1C105.714 764.607 106.014 765.307 106.014 766.2C106.014 766.787 105.854 767.34 105.534 767.86C105.214 768.393 104.72 768.82 104.054 769.14C103.387 769.473 102.534 769.64 101.494 769.64C100.08 769.64 98.9403 769.373 98.0737 768.84C97.207 768.32 96.7737 767.533 96.7737 766.48C96.7737 765.587 97.207 764.813 98.0737 764.16C97.807 764.04 97.5737 763.913 97.3737 763.78C97.187 763.647 97.0203 763.507 96.8737 763.36V762.9L98.6137 761.06C97.8403 760.38 97.4537 759.507 97.4537 758.44C97.4537 757.773 97.6137 757.167 97.9337 756.62C98.267 756.073 98.7337 755.64 99.3337 755.32C99.9337 755 100.66 754.84 101.514 754.84C102.074 754.84 102.594 754.92 103.074 755.08H106.834V756.64L105.134 756.76C105.4 757.267 105.534 757.827 105.534 758.44C105.534 759.107 105.374 759.713 105.054 760.26C104.734 760.807 104.267 761.24 103.654 761.56C103.054 761.88 102.34 762.04 101.514 762.04ZM101.514 760.08C102.034 760.08 102.46 759.94 102.794 759.66C103.14 759.38 103.314 758.98 103.314 758.46C103.314 757.94 103.14 757.54 102.794 757.26C102.46 756.98 102.034 756.84 101.514 756.84C100.967 756.84 100.527 756.98 100.194 757.26C99.8603 757.54 99.6937 757.94 99.6937 758.46C99.6937 758.98 99.8603 759.38 100.194 759.66C100.527 759.94 100.967 760.08 101.514 760.08ZM99.1137 766.22C99.1137 766.713 99.3403 767.08 99.7937 767.32C100.26 767.573 100.827 767.7 101.494 767.7C102.134 767.7 102.654 767.567 103.054 767.3C103.454 767.047 103.654 766.7 103.654 766.26C103.654 765.9 103.52 765.6 103.254 765.36C103 765.12 102.487 764.973 101.714 764.92C101.167 764.88 100.66 764.82 100.194 764.74C99.807 764.953 99.527 765.187 99.3537 765.44C99.1937 765.693 99.1137 765.953 99.1137 766.22ZM114.846 753.54C114.379 753.54 113.993 753.4 113.686 753.12C113.393 752.84 113.246 752.487 113.246 752.06C113.246 751.633 113.393 751.287 113.686 751.02C113.993 750.74 114.379 750.6 114.846 750.6C115.313 750.6 115.693 750.74 115.986 751.02C116.293 751.287 116.446 751.633 116.446 752.06C116.446 752.487 116.293 752.84 115.986 753.12C115.693 753.4 115.313 753.54 114.846 753.54ZM113.566 765V755.08H116.126V765H113.566ZM118.798 765V755.08H121.058L121.258 756.76C121.565 756.173 122.005 755.707 122.578 755.36C123.165 755.013 123.851 754.84 124.638 754.84C125.865 754.84 126.818 755.227 127.498 756C128.178 756.773 128.518 757.907 128.518 759.4V765H125.958V759.64C125.958 758.787 125.785 758.133 125.438 757.68C125.091 757.227 124.551 757 123.818 757C123.098 757 122.505 757.253 122.038 757.76C121.585 758.267 121.358 758.973 121.358 759.88V765H118.798Z" fill="white"/>
<path d="M142.802 611.065L137.595 615.444L137.713 604.555C137.713 604.437 137.595 604.2 137.595 604.082L135.228 601.36C134.991 601.005 134.518 601.005 134.163 601.241L124.103 609.763C123.748 610 123.629 610.473 123.866 610.828L126.233 613.55C126.47 613.905 126.943 613.905 127.298 613.668L131.914 609.763L131.796 621.006C131.796 621.125 131.914 621.361 131.914 621.48L134.044 624.083C134.281 624.438 134.754 624.438 135.109 624.202L145.88 615.207C146.235 614.97 146.235 614.497 145.998 614.142L143.749 611.183C143.512 610.946 143.039 610.828 142.802 611.065ZM163.987 590.471L156.294 594.85L158.898 581.122C158.898 580.885 158.898 580.648 158.78 580.53L156.413 576.506C156.176 576.033 155.584 575.914 155.111 576.151L140.435 584.672C139.962 584.909 139.844 585.501 140.08 585.974L142.329 589.88C142.566 590.353 143.157 590.471 143.631 590.235L150.377 586.329L147.773 600.531C147.773 600.768 147.773 601.005 147.891 601.123L150.022 604.91C150.259 605.384 150.85 605.502 151.324 605.265L166.946 596.271C167.42 596.034 167.538 595.442 167.301 594.969L165.053 590.945C165.053 590.353 164.461 590.235 163.987 590.471ZM191.563 570.707L182.332 574.021L187.894 559.463C188.013 559.227 188.013 558.99 187.894 558.753L186.119 553.901C185.882 553.309 185.291 553.072 184.817 553.309L167.064 559.7C166.473 559.937 166.236 560.528 166.473 561.002L168.248 565.736C168.485 566.328 169.076 566.564 169.55 566.328L177.716 563.369L172.154 578.4C172.035 578.636 172.035 578.873 172.154 579.11L173.811 583.725C174.047 584.317 174.639 584.554 175.112 584.317L194.049 577.453C194.64 577.216 194.877 576.624 194.64 576.151L192.865 571.298C192.747 570.825 192.155 570.47 191.563 570.707Z" fill="#42ADE2"/>
<ellipse cx="72" cy="664.5" rx="49" ry="11.5" fill="#157240"/>
<g filter="url(#filter4_d_1_1066)">
<path d="M70.7482 599.804V577.621" stroke="#52A155" stroke-width="11.8314" stroke-linecap="round"/>
<path d="M57.2109 578.638L44.6206 557.087C55.7786 558.463 77.0343 564.449 72.7928 577.389C68.5514 590.33 60.6376 583.613 57.2109 578.638Z" fill="#52A155"/>
<path d="M83.4854 578.638L96.0757 557.087C84.9177 558.463 63.662 564.449 67.9034 577.389C72.1449 590.33 80.0587 583.613 83.4854 578.638Z" fill="#52A155"/>
<path d="M53.9871 563.324C63.8465 568.993 68.7763 574.17 68.7763 576.142" stroke="#366635" stroke-width="0.492974" stroke-linecap="round"/>
<path d="M87.5094 562.092C77.6499 567.761 72.4737 573.677 72.4737 575.649" stroke="#366635" stroke-width="0.492974" stroke-linecap="round"/>
<path d="M38.821 658.027L32.7328 620.561C32.2455 617.562 34.5605 614.84 37.5987 614.84H102.795C105.872 614.84 108.197 617.629 107.644 620.657L100.795 658.123C100.367 660.465 98.326 662.166 95.9453 662.166H43.6869C41.2695 662.166 39.2088 660.413 38.821 658.027Z" fill="url(#paint2_linear_1_1066)"/>
<mask id="mask1_1_1066" style="mask-type:alpha" maskUnits="userSpaceOnUse" x="67" y="640" width="13" height="11">
<path d="M73.2131 649.348C74.4948 649.348 75.6932 648.96 76.5933 648.285C77.4938 647.609 78.1428 646.601 78.1428 645.405C78.1428 644.208 77.4938 643.2 76.5933 642.524C75.6932 641.849 74.4948 641.461 73.2131 641.461C71.9313 641.461 70.733 641.849 69.8328 642.524C68.9324 643.2 68.2833 644.208 68.2833 645.405C68.2833 646.601 68.9324 647.609 69.8328 648.285C70.733 648.96 71.9313 649.348 73.2131 649.348Z" stroke="black" stroke-width="1.9719"/>
</mask>
<g mask="url(#mask1_1_1066)">
<rect x="66.4897" y="645.378" width="14.2728" height="5.39218" fill="black"/>
</g>
<path d="M65.3255 633.573C65.3255 637.385 63.5598 640.475 61.3817 640.475C59.2036 640.475 57.4379 637.385 57.4379 633.573C57.4379 629.761 59.2036 638.256 61.3817 638.256C63.5598 638.256 65.3255 629.761 65.3255 633.573Z" fill="black"/>
<path d="M87.0164 633.571C87.0164 637.383 85.2507 640.473 83.0726 640.473C80.8945 640.473 79.1288 637.383 79.1288 633.571C79.1288 629.759 80.8945 638.254 83.0726 638.254C85.2507 638.254 87.0164 629.759 87.0164 633.571Z" fill="black"/>
<ellipse cx="54.4802" cy="642.447" rx="2.95784" ry="1.9719" fill="#FFC0CB"/>
<ellipse cx="89.9742" cy="642.447" rx="2.95784" ry="1.9719" fill="#FFC0CB"/>
<path d="M23.0578 617.882L19.3331 601.12C18.649 598.042 20.9917 595.121 24.1455 595.121H114.168C117.393 595.121 119.749 598.167 118.94 601.288L114.594 618.049C114.031 620.224 112.068 621.742 109.822 621.742H27.8702C25.5596 621.742 23.5591 620.137 23.0578 617.882Z" fill="#986255"/>
<path d="M90.2207 660.311L100.808 665.592C101.783 666.078 102.967 665.682 103.453 664.708L105.213 661.179" stroke="black" stroke-width="5.91569" stroke-linecap="round"/>
<path d="M53.7407 660.311L64.3285 665.592C65.3031 666.078 66.4871 665.682 66.9731 664.707L68.7332 661.178" stroke="black" stroke-width="5.91569" stroke-linecap="round"/>
</g>
<g filter="url(#filter5_d_1_1066)">
<g filter="url(#filter6_d_1_1066)">
<path d="M304.177 544.168C301.192 552.468 290.558 561.705 285.267 560.055C279.977 558.405 278.412 557.562 276.957 556.681" stroke="#AEE196" stroke-width="18.227" stroke-linecap="round"/>
</g>
<ellipse cx="9.29578" cy="17.2245" rx="9.29578" ry="17.2245" transform="matrix(-1 0 0 1 348.592 588)" fill="#AEE196"/>
<ellipse cx="9.29578" cy="17.2245" rx="9.29578" ry="17.2245" transform="matrix(-1 0 0 1 310.592 584)" fill="#AEE196"/>
<g filter="url(#filter7_d_1_1066)">
<ellipse cx="8.20216" cy="7.92876" rx="8.20216" ry="7.92876" transform="matrix(-1 0 0 1 371.539 570.203)" fill="#CEA77A"/>
<rect width="36.6363" height="57.4151" rx="17.1334" transform="matrix(-0.989999 -0.141073 -0.141073 0.989999 375.914 530.898)" fill="#CEA77A"/>
<path d="M367.529 539.582L376.461 552.797" stroke="#CEA77A" stroke-width="9.11351" stroke-linecap="round"/>
</g>
<path d="M371.014 584.799C357.723 590.049 355.222 579.541 354.187 578.325C353.995 578.099 353.703 578.439 353.442 578.577L342.01 584.616C341.504 584.884 341.197 585.423 341.252 585.994C342.576 599.691 354.454 614.696 392.254 576.327C393.389 575.174 392.392 573.868 391.015 574.718C386.433 577.547 379.834 581.315 371.014 584.799Z" fill="#AEE196" stroke="#AEE196" stroke-width="3.6454" stroke-linecap="round"/>
<path d="M361.927 581.818C361.835 581.236 361.104 581.027 360.719 581.473L358.18 584.405C357.849 584.788 358.027 585.385 358.513 585.525L361.656 586.423C362.143 586.563 362.609 586.15 362.531 585.65L361.927 581.818Z" fill="#68834D"/>
<path d="M365 581.957C364.756 581.42 363.997 581.414 363.744 581.946L362.08 585.45C361.863 585.908 362.194 586.436 362.7 586.44L365.968 586.467C366.475 586.472 366.814 585.949 366.605 585.488L365 581.957Z" fill="#68834D"/>
<path d="M368.508 581.431C368.166 580.951 367.419 581.091 367.274 581.662L366.314 585.42C366.189 585.911 366.615 586.366 367.113 586.273L370.326 585.671C370.823 585.578 371.056 585 370.762 584.588L368.508 581.431Z" fill="#68834D"/>
<path d="M371.933 580.419C371.504 580.015 370.799 580.297 370.767 580.885L370.556 584.758C370.528 585.264 371.034 585.627 371.504 585.439L374.539 584.226C375.009 584.038 375.126 583.425 374.757 583.078L371.933 580.419Z" fill="#68834D"/>
<path d="M375.229 578.481C374.751 578.136 374.088 578.506 374.132 579.094L374.421 582.962C374.459 583.467 375.008 583.762 375.45 583.515L378.303 581.921C378.745 581.674 378.781 581.052 378.371 580.755L375.229 578.481Z" fill="#68834D"/>
<path d="M378.898 576.905C378.398 576.593 377.762 577.008 377.846 577.591L378.398 581.43C378.471 581.931 379.038 582.188 379.462 581.912L382.2 580.126C382.624 579.85 382.618 579.226 382.188 578.958L378.898 576.905Z" fill="#68834D"/>
<path d="M382.435 574.306C381.935 573.994 381.299 574.409 381.383 574.992L381.936 578.831C382.008 579.332 382.575 579.589 382.999 579.313L385.737 577.527C386.161 577.25 386.155 576.627 385.726 576.359L382.435 574.306Z" fill="#68834D"/>
<path d="M385.487 572.189C384.958 571.924 384.362 572.402 384.505 572.976L385.487 576.917C385.606 577.396 386.173 577.6 386.57 577.307L389.356 575.25C389.772 574.943 389.717 574.305 389.255 574.073L385.487 572.189Z" fill="#68834D"/>
<path d="M358.027 585.028C361.279 587.4 372.433 588.44 389.298 574.745" stroke="#68834D" stroke-width="0.729081"/>
<g filter="url(#filter8_d_1_1066)">
<path d="M355.28 532.433C353.745 515.174 335.53 504.686 319.833 512.022L305.305 518.812C297.525 522.449 292.16 529.827 291.098 538.349L286.086 578.6C284.23 593.5 295.85 606.657 310.865 606.657H334.589C349.253 606.657 360.761 594.081 359.462 579.475L355.28 532.433Z" fill="#AEE196"/>
</g>
<path d="M341.969 451.43C341.769 448.64 338.514 447.226 336.338 448.984L331.243 453.1C329.22 454.734 329.653 457.933 332.039 458.97L337.602 461.387C339.988 462.424 342.622 460.558 342.436 457.964L341.969 451.43Z" fill="#68834D"/>
<path d="M329.39 449.955C327.831 447.632 324.303 448.021 323.288 450.628L320.91 456.731C319.965 459.155 321.931 461.716 324.516 461.431L330.545 460.766C333.13 460.481 334.49 457.553 333.041 455.393L329.39 449.955Z" fill="#68834D"/>
<path d="M353.658 457.906C354.022 455.132 351.117 453.094 348.633 454.38L342.816 457.391C340.506 458.586 340.289 461.807 342.419 463.301L347.384 466.785C349.513 468.279 352.468 466.979 352.806 464.4L353.658 457.906Z" fill="#68834D"/>
<path d="M363.247 469.178C364.544 466.699 362.518 463.785 359.743 464.137L353.245 464.96C350.664 465.288 349.352 468.237 350.837 470.373L354.299 475.353C355.783 477.489 359.005 477.286 360.211 474.982L363.247 469.178Z" fill="#68834D"/>
<path d="M369.22 483.529C371.366 481.735 370.61 478.268 367.911 477.531L361.592 475.806C359.083 475.121 356.742 477.344 357.297 479.885L358.59 485.811C359.144 488.352 362.198 489.398 364.194 487.73L369.22 483.529Z" fill="#68834D"/>
<path d="M369.478 498.157C372.059 497.079 372.363 493.543 370.003 492.04L364.479 488.522C362.285 487.124 359.391 488.555 359.168 491.146L358.649 497.189C358.426 499.781 361.033 501.684 363.434 500.681L369.478 498.157Z" fill="#68834D"/>
<path d="M366.06 511.441C368.852 511.26 370.288 508.015 368.545 505.827L364.463 500.704C362.842 498.67 359.641 499.082 358.588 501.461L356.133 507.007C355.081 509.386 356.928 512.033 359.524 511.864L366.06 511.441Z" fill="#68834D"/>
<path d="M358.957 523.036C361.723 523.46 363.823 520.599 362.591 518.088L359.707 512.207C358.562 509.871 355.346 509.585 353.807 511.682L350.217 516.57C348.677 518.667 349.912 521.649 352.483 522.043L358.957 523.036Z" fill="#68834D"/>
<ellipse cx="35.9072" cy="37.3654" rx="35.9072" ry="37.3654" transform="matrix(-1 0 0 1 361.697 455.008)" fill="#AEE196"/>
<path d="M351.201 512.111C353.558 500.793 344.918 490.168 333.357 490.168H290.046C277.675 490.168 268.898 502.229 272.703 514.001L274.219 518.691C276.742 526.498 284.17 531.657 292.367 531.295L331.26 529.576C334.25 529.444 337.162 528.577 339.738 527.052L344.746 524.089C347.807 521.675 349.92 518.26 350.715 514.444L351.201 512.111Z" fill="#AEE196"/>
<ellipse cx="3.46313" cy="5.74151" rx="3.46313" ry="5.74151" transform="matrix(-0.992982 -0.118268 -0.118268 0.992982 301.473 480.247)" fill="black"/>
<ellipse cx="3.46313" cy="5.74151" rx="3.46313" ry="5.74151" transform="matrix(-0.992982 -0.118268 -0.118268 0.992982 324.917 485.173)" fill="black"/>
<ellipse cx="0.729081" cy="2.09611" rx="0.729081" ry="2.09611" transform="matrix(-0.939753 -0.341854 -0.341854 0.939753 277.123 499.798)" fill="#7AA068"/>
<ellipse cx="0.729081" cy="2.09611" rx="0.729081" ry="2.09611" transform="matrix(-0.939753 -0.341854 -0.341854 0.939753 279.857 500.163)" fill="#7AA068"/>
<ellipse cx="3.93704" cy="2.62469" rx="3.93704" ry="2.62469" transform="matrix(-0.889985 -0.45599 -0.45599 0.889985 338.913 502.951)" fill="#D87A8B"/>
<mask id="mask2_1_1066" style="mask-type:alpha" maskUnits="userSpaceOnUse" x="276" y="508" width="12" height="9">
<path d="M281.482 515.919C280.196 515.743 279.055 515.251 278.253 514.572C277.456 513.897 276.945 512.988 277.079 512.008C277.213 511.027 277.948 510.288 278.897 509.851C279.851 509.411 281.081 509.242 282.368 509.417C283.654 509.592 284.794 510.085 285.596 510.764C286.393 511.439 286.904 512.347 286.77 513.328C286.637 514.309 285.901 515.047 284.953 515.484C283.999 515.924 282.768 516.094 281.482 515.919Z" stroke="black" stroke-width="0.911351"/>
</mask>
<g mask="url(#mask2_1_1066)">
<rect width="16.0498" height="5.15034" transform="matrix(-0.990847 -0.13499 -0.13499 0.990847 289.419 513.664)" fill="black"/>
</g>
<path d="M355.135 532.067C352.462 529.485 345.785 525.87 340.462 532.067C335.33 538.044 335.972 543.211 336.651 547.004C336.7 547.281 336.775 547.552 336.871 547.816L343.014 564.553L345.019 569.292" stroke="#CEA77A" stroke-width="9.11351" stroke-linecap="round"/>
<g filter="url(#filter9_d_1_1066)">
<path d="M349.241 541.768C355.254 548.222 358.595 561.906 354.706 565.853C350.817 569.801 349.351 570.806 347.902 571.696" stroke="#AEE196" stroke-width="18.227" stroke-linecap="round"/>
</g>
<mask id="mask3_1_1066" style="mask-type:alpha" maskUnits="userSpaceOnUse" x="292" y="441" width="85" height="75">
<ellipse cx="42.3884" cy="37.0346" rx="42.3884" ry="37.0346" transform="matrix(-0.915513 -0.402289 -0.454293 0.890852 390.296 462.755)" fill="#D9D9D9"/>
</mask>
<g mask="url(#mask3_1_1066)">
<rect width="104.43" height="63.5464" rx="14.5816" transform="matrix(-0.916164 -0.400804 -0.45263 0.891698 403.457 446.135)" fill="#D40A0A"/>
</g>
<path d="M368.04 494.796L286.055 458.107" stroke="#D40A0A" stroke-width="10.9362" stroke-linecap="round"/>
<ellipse cx="4.97782" cy="1.36703" rx="4.97782" ry="1.36703" transform="matrix(-0.648695 -0.761048 -0.761048 0.648695 371.378 460.253)" fill="#BB0606"/>
<mask id="mask4_1_1066" style="mask-type:alpha" maskUnits="userSpaceOnUse" x="285" y="509" width="75" height="98">
<path d="M355.28 532.433C353.745 515.174 335.53 504.686 319.833 512.022L305.305 518.812C297.525 522.449 292.16 529.827 291.098 538.349L286.086 578.6C284.23 593.5 295.85 606.657 310.865 606.657H334.589C349.253 606.657 360.761 594.081 359.462 579.475L357.001 551.794L355.28 532.433Z" fill="#AEE196"/>
</mask>
<g mask="url(#mask4_1_1066)">
<ellipse cx="18.5949" cy="26.8668" rx="18.5949" ry="26.8668" transform="matrix(-0.999465 -0.0327192 -0.0327192 0.999465 308.303 533.143)" fill="#EAD2AD"/>
</g>
<rect x="272.837" y="535" width="28.7894" height="18.5613" transform="rotate(70.8417 272.837 535)" fill="#D9D9D9"/>
<g clip-path="url(#clip0_1_1066)">
<path d="M255.633 539.83C255.242 539.964 254.92 540.248 254.739 540.619C254.557 540.991 254.53 541.419 254.664 541.81L263.758 568.342C263.892 568.733 264.176 569.055 264.547 569.236C264.918 569.418 265.346 569.445 265.737 569.311L281.951 563.754C282.342 563.62 282.664 563.336 282.846 562.965C283.027 562.593 283.054 562.165 282.92 561.774L273.826 535.242C273.692 534.851 273.409 534.529 273.037 534.348C272.666 534.166 272.238 534.139 271.847 534.273L255.633 539.83ZM258.117 542.273L271.464 537.699L279.143 560.104L274.594 561.663C274.904 561.375 275.202 561.061 275.466 560.697L275.467 560.696L275.468 560.695C275.638 560.462 275.783 560.212 275.901 559.949L274.742 559.32C274.665 559.494 274.562 559.665 274.441 559.834L274.44 559.834C274.121 560.274 273.709 560.665 273.256 561.034L273.897 561.902L272.633 562.335L272.274 561.756C271.593 562.216 270.877 562.633 270.145 563.03L270.213 563.165L265.797 564.678L258.117 542.273ZM266.923 540.57C265.348 541.109 264.499 542.838 265.037 544.408C265.246 545.016 265.634 545.515 266.122 545.867L269.293 548.627C269.697 548.896 269.859 548.763 269.984 548.369L270.899 543.878C270.915 543.782 270.922 543.685 270.922 543.588C270.944 543.21 270.895 542.823 270.765 542.444C270.227 540.875 268.497 540.03 266.923 540.57ZM267.381 541.908C267.581 541.838 267.792 541.809 268.003 541.821C268.214 541.833 268.42 541.887 268.61 541.98C268.8 542.073 268.97 542.202 269.109 542.361C269.249 542.519 269.356 542.704 269.423 542.904C269.493 543.104 269.522 543.315 269.509 543.526C269.496 543.737 269.441 543.944 269.348 544.133C269.255 544.323 269.125 544.492 268.966 544.631C268.807 544.77 268.622 544.877 268.422 544.944C268.222 545.014 268.011 545.043 267.8 545.031C267.589 545.019 267.382 544.965 267.193 544.872C267.003 544.779 266.833 544.65 266.693 544.491C266.554 544.333 266.447 544.148 266.38 543.948C266.31 543.748 266.281 543.537 266.294 543.326C266.307 543.115 266.361 542.908 266.454 542.719C266.547 542.529 266.677 542.36 266.836 542.22C266.996 542.081 267.181 541.975 267.381 541.908M269.666 549.456C268.889 549.835 268.121 550.259 267.39 550.767L268.125 551.916C268.788 551.454 269.504 551.058 270.245 550.696L269.666 549.456ZM266.328 551.615C266.127 551.802 265.933 552.005 265.752 552.226L265.752 552.228L265.751 552.229C265.498 552.542 265.248 552.915 265.099 553.383C264.991 553.722 264.945 554.12 265.046 554.538L266.282 554.262C266.258 554.163 266.263 554.022 266.31 553.874L266.311 553.874L266.311 553.873C266.387 553.634 266.539 553.388 266.736 553.143L266.736 553.143C266.878 552.971 267.031 552.809 267.194 552.658L266.328 551.615ZM266.719 554.757L266.286 556.012C266.511 556.107 266.745 556.178 266.985 556.223L266.988 556.223L266.991 556.224C267.727 556.363 268.429 556.344 269.081 556.329L268.993 554.97C268.341 554.984 267.724 554.993 267.156 554.886C267.007 554.858 266.86 554.815 266.719 554.757ZM270.261 554.926L270.358 556.285L270.531 556.28L270.744 556.275C271.449 556.264 272.133 556.276 272.781 556.395L272.938 555.056C272.154 554.912 271.39 554.905 270.659 554.916L270.657 554.916L270.438 554.921L270.261 554.926ZM274.354 555.535L273.822 556.742C274.097 556.89 274.335 557.099 274.501 557.344L274.502 557.345L274.503 557.347C274.697 557.632 274.825 558.001 274.885 558.399L276.145 558.247C276.06 557.686 275.878 557.101 275.524 556.584C275.224 556.145 274.823 555.785 274.354 555.535ZM271.401 564.21L274.349 563.2L274.813 564.553L271.865 565.563L271.401 564.21Z" fill="black"/>
</g>
</g>
<g filter="url(#filter10_d_1_1066)">
<ellipse cx="369.5" cy="12.5" rx="94.5" ry="82.5" fill="#F4EAB7"/>
</g>
<path fill-rule="evenodd" clip-rule="evenodd" d="M331.016 143.113C331.107 135.533 333.844 128.222 338.755 122.447C343.666 116.672 350.441 112.795 357.908 111.487C365.375 110.18 373.065 111.523 379.646 115.286C386.227 119.049 391.286 124.994 393.946 132.093C400.943 134.022 407.003 138.422 411.005 144.477C415.006 150.532 416.678 157.832 415.71 165.024C414.742 172.217 411.201 178.816 405.741 183.598C400.282 188.38 393.274 191.021 386.016 191.033H341.016C335.27 191.037 329.698 189.061 325.237 185.437C320.777 181.814 317.701 176.765 316.527 171.14C315.353 165.515 316.153 159.657 318.792 154.552C321.431 149.447 325.748 145.408 331.016 143.113Z" fill="white"/>
<path d="M255.636 88.076C249.202 83.5316 240.996 81.0218 232.5 81C215.183 81 200.808 91.5455 199.244 105.144C188.995 106.33 181 113.359 181 121.985C181 131.455 190.643 139 202.327 139H259.66C273.005 139 284 130.384 284 119.586C284 110.29 275.85 102.592 265.061 100.641C264.14 96.0905 260.567 91.556 255.636 88.076Z" fill="white"/>
<path d="M139.508 219H68.9219C59.029 219 49.8202 216 42.9924 210.55C35.9039 204.892 32 197.046 32 188.455C32 179.725 35.6352 172.199 42.5119 166.686C47.9226 162.346 55.3042 159.394 63.5193 158.246C66.0866 152.355 70.3103 147.133 75.7959 143.066C82.9739 137.79 91.8623 135 101.5 135C112.341 134.959 122.774 138.631 130.587 145.238C137.933 151.457 142.692 159.861 144.462 169.688C157.849 171.43 171 179.422 171 194.182C171 202.15 167.677 208.686 161.387 213.089C155.859 216.955 148.296 219 139.508 219Z" fill="white"/>
</g>
<g filter="url(#filter11_d_1_1066)">
<path d="M32.5 141.875V85H89.375V93.125H48.75V109.375H81.25V117.5H48.75V141.875H32.5ZM105.625 141.875V133.75H121.875V93.125H113.75V85H138.125V133.75H154.375V141.875H105.625ZM170.625 141.875V133.75H162.5V109.375H170.625V101.25H211.25V109.375H219.375V133.75H211.25V141.875H170.625ZM178.75 133.75H203.125V109.375H178.75V133.75ZM251.875 109.375H260V117.5H251.875V141.875H235.625V101.25H251.875V109.375ZM284.375 101.25V109.375H260V101.25H284.375ZM300.625 141.875V133.75H292.5V125.625H300.625V117.5H333.125V109.375H300.625V101.25H341.25V109.375H349.375V141.875H300.625ZM308.75 133.75H333.125V125.625H308.75V133.75ZM97.5 206.875V150H154.375V158.125H113.75V174.375H146.25V182.5H113.75V206.875H97.5ZM186.875 158.125V150H203.125V158.125H186.875ZM170.625 206.875V198.75H186.875V174.375H178.75V166.25H203.125V198.75H219.375V206.875H170.625ZM251.875 206.875V174.375H235.625V166.25H251.875V150H268.125V166.25H284.375V174.375H268.125V206.875H251.875Z" fill="#3D61A7"/>
</g>
<defs>
<filter id="filter0_d_1_1066" x="18" y="497.556" width="520" height="350.444" filterUnits="userSpaceOnUse" color-interpolation-filters="sRGB">
<feFlood flood-opacity="0" result="BackgroundImageFix"/>
<feColorMatrix in="SourceAlpha" type="matrix" values="0 0 0 0 0 0 0 0 0 0 0 0 0 0 0 0 0 0 127 0" result="hardAlpha"/>
<feOffset dy="-4"/>
<feGaussianBlur stdDeviation="2"/>
<feComposite in2="hardAlpha" operator="out"/>
<feColorMatrix type="matrix" values="0 0 0 0 0 0 0 0 0 0 0 0 0 0 0 0 0 0 0.1 0"/>
<feBlend mode="normal" in2="BackgroundImageFix" result="effect1_dropShadow_1_1066"/>
<feBlend mode="normal" in="SourceGraphic" in2="effect1_dropShadow_1_1066" result="shape"/>
</filter>
<filter id="filter1_d_1_1066" x="-144" y="533" width="456" height="324" filterUnits="userSpaceOnUse" color-interpolation-filters="sRGB">
<feFlood flood-opacity="0" result="BackgroundImageFix"/>
<feColorMatrix in="SourceAlpha" type="matrix" values="0 0 0 0 0 0 0 0 0 0 0 0 0 0 0 0 0 0 127 0" result="hardAlpha"/>
<feOffset dx="4" dy="5"/>
<feGaussianBlur stdDeviation="2"/>
<feComposite in2="hardAlpha" operator="out"/>
<feColorMatrix type="matrix" values="0 0 0 0 0 0 0 0 0 0 0 0 0 0 0 0 0 0 0.5 0"/>
<feBlend mode="normal" in2="BackgroundImageFix" result="effect1_dropShadow_1_1066"/>
<feBlend mode="normal" in="SourceGraphic" in2="effect1_dropShadow_1_1066" result="shape"/>
</filter>
<filter id="filter2_d_1_1066" x="27" y="727" width="150" height="68" filterUnits="userSpaceOnUse" color-interpolation-filters="sRGB">
<feFlood flood-opacity="0" result="BackgroundImageFix"/>
<feColorMatrix in="SourceAlpha" type="matrix" values="0 0 0 0 0 0 0 0 0 0 0 0 0 0 0 0 0 0 127 0" result="hardAlpha"/>
<feOffset dy="4"/>
<feGaussianBlur stdDeviation="2"/>
<feComposite in2="hardAlpha" operator="out"/>
<feColorMatrix type="matrix" values="0 0 0 0 0 0 0 0 0 0 0 0 0 0 0 0 0 0 0.25 0"/>
<feBlend mode="normal" in2="BackgroundImageFix" result="effect1_dropShadow_1_1066"/>
<feBlend mode="normal" in="SourceGraphic" in2="effect1_dropShadow_1_1066" result="shape"/>
</filter>
<filter id="filter3_d_1_1066" x="214" y="727" width="150" height="68" filterUnits="userSpaceOnUse" color-interpolation-filters="sRGB">
<feFlood flood-opacity="0" result="BackgroundImageFix"/>
<feColorMatrix in="SourceAlpha" type="matrix" values="0 0 0 0 0 0 0 0 0 0 0 0 0 0 0 0 0 0 127 0" result="hardAlpha"/>
<feOffset dy="4"/>
<feGaussianBlur stdDeviation="2"/>
<feComposite in2="hardAlpha" operator="out"/>
<feColorMatrix type="matrix" values="0 0 0 0 0 0 0 0 0 0 0 0 0 0 0 0 0 0 0.25 0"/>
<feBlend mode="normal" in2="BackgroundImageFix" result="effect1_dropShadow_1_1066"/>
<feBlend mode="normal" in="SourceGraphic" in2="effect1_dropShadow_1_1066" result="shape"/>
</filter>
<filter id="filter4_d_1_1066" x="18.2278" y="557.087" width="101.858" height="113.643" filterUnits="userSpaceOnUse" color-interpolation-filters="sRGB">
<feFlood flood-opacity="0" result="BackgroundImageFix"/>
<feColorMatrix in="SourceAlpha" type="matrix" values="0 0 0 0 0 0 0 0 0 0 0 0 0 0 0 0 0 0 127 0" result="hardAlpha"/>
<feOffset dy="0.985948"/>
<feGaussianBlur stdDeviation="0.492974"/>
<feComposite in2="hardAlpha" operator="out"/>
<feColorMatrix type="matrix" values="0 0 0 0 0 0 0 0 0 0 0 0 0 0 0 0 0 0 0.25 0"/>
<feBlend mode="normal" in2="BackgroundImageFix" result="effect1_dropShadow_1_1066"/>
<feBlend mode="normal" in="SourceGraphic" in2="effect1_dropShadow_1_1066" result="shape"/>
</filter>
<filter id="filter5_d_1_1066" x="245" y="384" width="167.323" height="246.449" filterUnits="userSpaceOnUse" color-interpolation-filters="sRGB">
<feFlood flood-opacity="0" result="BackgroundImageFix"/>
<feColorMatrix in="SourceAlpha" type="matrix" values="0 0 0 0 0 0 0 0 0 0 0 0 0 0 0 0 0 0 127 0" result="hardAlpha"/>
<feOffset dy="4"/>
<feGaussianBlur stdDeviation="2"/>
<feComposite in2="hardAlpha" operator="out"/>
<feColorMatrix type="matrix" values="0 0 0 0 0 0 0 0 0 0 0 0 0 0 0 0 0 0 0.25 0"/>
<feBlend mode="normal" in2="BackgroundImageFix" result="effect1_dropShadow_1_1066"/>
<feBlend mode="normal" in="SourceGraphic" in2="effect1_dropShadow_1_1066" result="shape"/>
</filter>
<filter id="filter6_d_1_1066" x="267.114" y="535.052" width="46.9086" height="35.7694" filterUnits="userSpaceOnUse" color-interpolation-filters="sRGB">
<feFlood flood-opacity="0" result="BackgroundImageFix"/>
<feColorMatrix in="SourceAlpha" type="matrix" values="0 0 0 0 0 0 0 0 0 0 0 0 0 0 0 0 0 0 127 0" result="hardAlpha"/>
<feOffset dy="0.729081"/>
<feGaussianBlur stdDeviation="0.36454"/>
<feComposite in2="hardAlpha" operator="out"/>
<feColorMatrix type="matrix" values="0 0 0 0 0.407843 0 0 0 0 0.513726 0 0 0 0 0.301961 0 0 0 0.5 0"/>
<feBlend mode="normal" in2="BackgroundImageFix" result="effect1_dropShadow_1_1066"/>
<feBlend mode="normal" in="SourceGraphic" in2="effect1_dropShadow_1_1066" result="shape"/>
</filter>
<filter id="filter7_d_1_1066" x="333.059" y="527.973" width="48.6883" height="59.5462" filterUnits="userSpaceOnUse" color-interpolation-filters="sRGB">
<feFlood flood-opacity="0" result="BackgroundImageFix"/>
<feColorMatrix in="SourceAlpha" type="matrix" values="0 0 0 0 0 0 0 0 0 0 0 0 0 0 0 0 0 0 127 0" result="hardAlpha"/>
<feOffset dy="0.729081"/>
<feGaussianBlur stdDeviation="0.36454"/>
<feComposite in2="hardAlpha" operator="out"/>
<feColorMatrix type="matrix" values="0 0 0 0 0 0 0 0 0 0 0 0 0 0 0 0 0 0 0.25 0"/>
<feBlend mode="normal" in2="BackgroundImageFix" result="effect1_dropShadow_1_1066"/>
<feBlend mode="normal" in="SourceGraphic" in2="effect1_dropShadow_1_1066" result="shape"/>
</filter>
<filter id="filter8_d_1_1066" x="285.162" y="509.65" width="75.1298" height="98.4649" filterUnits="userSpaceOnUse" color-interpolation-filters="sRGB">
<feFlood flood-opacity="0" result="BackgroundImageFix"/>
<feColorMatrix in="SourceAlpha" type="matrix" values="0 0 0 0 0 0 0 0 0 0 0 0 0 0 0 0 0 0 127 0" result="hardAlpha"/>
<feOffset dy="0.729081"/>
<feGaussianBlur stdDeviation="0.36454"/>
<feComposite in2="hardAlpha" operator="out"/>
<feColorMatrix type="matrix" values="0 0 0 0 0.407843 0 0 0 0 0.513726 0 0 0 0 0.301961 0 0 0 0.25 0"/>
<feBlend mode="normal" in2="BackgroundImageFix" result="effect1_dropShadow_1_1066"/>
<feBlend mode="normal" in="SourceGraphic" in2="effect1_dropShadow_1_1066" result="shape"/>
</filter>
<filter id="filter9_d_1_1066" x="338.058" y="532.654" width="28.1623" height="49.6147" filterUnits="userSpaceOnUse" color-interpolation-filters="sRGB">
<feFlood flood-opacity="0" result="BackgroundImageFix"/>
<feColorMatrix in="SourceAlpha" type="matrix" values="0 0 0 0 0 0 0 0 0 0 0 0 0 0 0 0 0 0 127 0" result="hardAlpha"/>
<feOffset dy="0.729081"/>
<feGaussianBlur stdDeviation="0.36454"/>
<feComposite in2="hardAlpha" operator="out"/>
<feColorMatrix type="matrix" values="0 0 0 0 0.407843 0 0 0 0 0.513726 0 0 0 0 0.301961 0 0 0 0.5 0"/>
<feBlend mode="normal" in2="BackgroundImageFix" result="effect1_dropShadow_1_1066"/>
<feBlend mode="normal" in="SourceGraphic" in2="effect1_dropShadow_1_1066" result="shape"/>
</filter>
<filter id="filter10_d_1_1066" x="271" y="-70" width="197" height="173" filterUnits="userSpaceOnUse" color-interpolation-filters="sRGB">
<feFlood flood-opacity="0" result="BackgroundImageFix"/>
<feColorMatrix in="SourceAlpha" type="matrix" values="0 0 0 0 0 0 0 0 0 0 0 0 0 0 0 0 0 0 127 0" result="hardAlpha"/>
<feOffset dy="4"/>
<feGaussianBlur stdDeviation="2"/>
<feComposite in2="hardAlpha" operator="out"/>
<feColorMatrix type="matrix" values="0 0 0 0 0.966738 0 0 0 0 1 0 0 0 0 0.833692 0 0 0 0.25 0"/>
<feBlend mode="normal" in2="BackgroundImageFix" result="effect1_dropShadow_1_1066"/>
<feBlend mode="normal" in="SourceGraphic" in2="effect1_dropShadow_1_1066" result="shape"/>
</filter>
<filter id="filter11_d_1_1066" x="28.5" y="85" width="324.875" height="129.875" filterUnits="userSpaceOnUse" color-interpolation-filters="sRGB">
<feFlood flood-opacity="0" result="BackgroundImageFix"/>
<feColorMatrix in="SourceAlpha" type="matrix" values="0 0 0 0 0 0 0 0 0 0 0 0 0 0 0 0 0 0 127 0" result="hardAlpha"/>
<feOffset dy="4"/>
<feGaussianBlur stdDeviation="2"/>
<feComposite in2="hardAlpha" operator="out"/>
<feColorMatrix type="matrix" values="0 0 0 0 0 0 0 0 0 0 0 0 0 0 0 0 0 0 0.5 0"/>
<feBlend mode="normal" in2="BackgroundImageFix" result="effect1_dropShadow_1_1066"/>
<feBlend mode="normal" in="SourceGraphic" in2="effect1_dropShadow_1_1066" result="shape"/>
</filter>
<linearGradient id="paint0_linear_1_1066" x1="195" y1="0" x2="195" y2="848" gradientUnits="userSpaceOnUse">
<stop offset="0.0240213" stop-color="#E7F5FF"/>
<stop offset="0.801627" stop-color="white"/>
</linearGradient>
<linearGradient id="paint1_linear_1_1066" x1="195" y1="0" x2="195" y2="848" gradientUnits="userSpaceOnUse">
<stop offset="0.0240213" stop-color="#E7F5FF"/>
<stop offset="0.801627" stop-color="white"/>
</linearGradient>
<linearGradient id="paint2_linear_1_1066" x1="70.2552" y1="614.84" x2="70.2552" y2="662.166" gradientUnits="userSpaceOnUse">
<stop stop-color="#C6A598"/>
<stop offset="1" stop-color="#BE8D78"/>
</linearGradient>
<clipPath id="clip0_1_1066">
<rect width="31.1637" height="31.1637" fill="white" transform="translate(249 542.104) rotate(-18.9185)"/>
</clipPath>
</defs>
</svg>
